<?xml version="1.0" encoding="UTF-8" standalone="no"?>
<svg
   viewBox="0 0 127.14 96.36"
   version="1.1"
   id="svg4840"
   sodipodi:docname="discord.svg"
   inkscape:export-filename="discordGradient.svg"
   inkscape:export-xdpi="96"
   inkscape:export-ydpi="96"
   inkscape:version="1.2.2 (732a01da63, 2022-12-09)"
   xmlns:inkscape="http://www.inkscape.org/namespaces/inkscape"
   xmlns:sodipodi="http://sodipodi.sourceforge.net/DTD/sodipodi-0.dtd"
   xmlns:xlink="http://www.w3.org/1999/xlink"
   xmlns="http://www.w3.org/2000/svg"
   xmlns:svg="http://www.w3.org/2000/svg">
  <defs
     id="defs4844">
    <linearGradient
       inkscape:collect="always"
       id="linearGradient5239">
      <stop
         style="stop-color:#a5639a;stop-opacity:1;"
         offset="0.01670146"
         id="stop5235" />
      <stop
         style="stop-color:#82f5de;stop-opacity:1;"
         offset="1"
         id="stop5237" />
    </linearGradient>
    <linearGradient
       inkscape:collect="always"
       xlink:href="#linearGradient5239"
       id="linearGradient5241"
       x1="75.745246"
       y1="105.14623"
       x2="202.8855"
       y2="105.14623"
       gradientUnits="userSpaceOnUse" />
    <linearGradient
       inkscape:collect="always"
       xlink:href="#linearGradient5239"
       id="linearGradient6695"
       gradientUnits="userSpaceOnUse"
       x1="75.745246"
       y1="105.14623"
       x2="202.8855"
       y2="105.14623" />
  </defs>
  <sodipodi:namedview
     id="namedview4842"
     pagecolor="#ffffff"
     bordercolor="#000000"
     borderopacity="0.25"
     inkscape:showpageshadow="2"
     inkscape:pageopacity="0.0"
     inkscape:pagecheckerboard="0"
     inkscape:deskcolor="#d1d1d1"
     showgrid="false"
     inkscape:zoom="4.7659817"
     inkscape:cx="-59.484072"
     inkscape:cy="128.72479"
     inkscape:window-width="3840"
     inkscape:window-height="2054"
     inkscape:window-x="-11"
     inkscape:window-y="-11"
     inkscape:window-maximized="1"
     inkscape:current-layer="svg4840" />
  <g
     id="g4847"
     style="fill:url(#linearGradient5241);fill-opacity:1"
     transform="matrix(0.703865,0,0,0.703865,-29.18499,-27.822043)"
     inkscape:export-filename="g4847.svg"
     inkscape:export-xdpi="96"
     inkscape:export-ydpi="96">
    <path
       fill="#ffffff"
       d="m 183.44515,65.036228 a 105.15,105.15 0 0 0 -26.23,-8.07 72.06,72.06 0 0 0 -3.36,6.83 97.68,97.68 0 0 0 -29.11,0 72.37,72.37 0 0 0 -3.36,-6.83 105.89,105.89 0 0 0 -26.25,8.09 c -16.6,24.56 -21.1,48.510002 -18.85,72.120002 v 0 a 105.73,105.73 0 0 0 32.17,16.15 77.7,77.7 0 0 0 6.89,-11.11 68.42,68.42 0 0 1 -10.85,-5.18 c 0.91,-0.66 1.8,-1.34 2.66,-2 a 75.57,75.57 0 0 0 64.32,0 c 0.87,0.71 1.76,1.39 2.66,2 a 68.68,68.68 0 0 1 -10.87,5.19 77,77 0 0 0 6.89,11.1 105.25,105.25 0 0 0 32.19,-16.14 v 0 c 2.64,-27.38 -4.51,-51.110002 -18.9,-72.150002 z m -65.25,57.620002 c -6.27,0 -11.45,-5.69 -11.45,-12.69 0,-7 5,-12.740002 11.43,-12.740002 6.43,0 11.57,5.740002 11.46,12.740002 -0.11,7 -5.05,12.69 -11.44,12.69 z m 42.24,0 c -6.28,0 -11.44,-5.69 -11.44,-12.69 0,-7 5,-12.740002 11.44,-12.740002 6.44,0 11.54,5.740002 11.43,12.740002 -0.11,7 -5.04,12.69 -11.43,12.69 z"
       id="path4838"
       style="fill:url(#linearGradient6695);fill-opacity:1" />
  </g>
</svg>
