<?xml version="1.0" encoding="UTF-8" standalone="no"?>
<svg
   fill="#ffffff"
   viewBox="0 0 44 44"
   width="44"
   height="44"
   version="1.1"
   id="svg7811"
   sodipodi:docname="icons8-instagram.svg"
   inkscape:version="1.2.2 (732a01da63, 2022-12-09)"
   xmlns:inkscape="http://www.inkscape.org/namespaces/inkscape"
   xmlns:sodipodi="http://sodipodi.sourceforge.net/DTD/sodipodi-0.dtd"
   xmlns="http://www.w3.org/2000/svg"
   xmlns:svg="http://www.w3.org/2000/svg">
  <defs
     id="defs7815" />
  <sodipodi:namedview
     id="namedview7813"
     pagecolor="#ffffff"
     bordercolor="#000000"
     borderopacity="0.25"
     inkscape:showpageshadow="2"
     inkscape:pageopacity="0.0"
     inkscape:pagecheckerboard="0"
     inkscape:deskcolor="#d1d1d1"
     showgrid="false"
     inkscape:zoom="30.02"
     inkscape:cx="22.884744"
     inkscape:cy="25"
     inkscape:window-width="3840"
     inkscape:window-height="2054"
     inkscape:window-x="-11"
     inkscape:window-y="-11"
     inkscape:window-maximized="1"
     inkscape:current-layer="svg7811" />
  <path
     d="M 13,0 C 5.8324839,0 0,5.8324839 0,13 v 18 c 0,7.167516 5.8324839,13 13,13 h 18 c 7.167516,0 13,-5.832484 13,-13 V 13 C 44,5.8324839 38.167516,0 31,0 Z m 0,2 h 18 c 6.086484,0 11,4.9135161 11,11 v 18 c 0,6.086484 -4.913516,11 -11,11 H 13 C 6.9135161,42 2,37.086484 2,31 V 13 C 2,6.9135161 6.9135161,2 13,2 Z m 21,6 a 2,2 0 0 0 -2,2 2,2 0 0 0 2,2 2,2 0 0 0 2,-2 2,2 0 0 0 -2,-2 z m -12,3 c -6.063288,0 -11,4.936712 -11,11 0,6.063288 4.936712,11 11,11 6.063288,0 11,-4.936712 11,-11 0,-6.063288 -4.936712,-11 -11,-11 z m 0,2 c 4.982407,0 9,4.017593 9,9 0,4.982407 -4.017593,9 -9,9 -4.982407,0 -9,-4.017593 -9,-9 0,-4.982407 4.017593,-9 9,-9 z"
     id="path7809"
     style="fill:#626a67;fill-opacity:1" />
</svg>
