<?xml version="1.0" encoding="UTF-8" standalone="no"?>
<!-- Created with Inkscape (http://www.inkscape.org/) -->

<svg
   version="1.1"
   id="svg10376"
   width="234.66666"
   height="165.33333"
   viewBox="0 0 234.66666 165.33333"
   sodipodi:docname="yt_icon_mono_dark.ai"
   xmlns:inkscape="http://www.inkscape.org/namespaces/inkscape"
   xmlns:sodipodi="http://sodipodi.sourceforge.net/DTD/sodipodi-0.dtd"
   xmlns="http://www.w3.org/2000/svg"
   xmlns:svg="http://www.w3.org/2000/svg">
  <defs
     id="defs10380">
    <clipPath
       clipPathUnits="userSpaceOnUse"
       id="clipPath10392">
      <path
         d="M 0,192 H 192 V 0 H 0 Z"
         id="path10390" />
    </clipPath>
  </defs>
  <sodipodi:namedview
     id="namedview10378"
     pagecolor="#ffffff"
     bordercolor="#000000"
     borderopacity="0.25"
     inkscape:showpageshadow="2"
     inkscape:pageopacity="0.0"
     inkscape:pagecheckerboard="0"
     inkscape:deskcolor="#d1d1d1"
     showgrid="false" />
  <g
     id="g10384"
     inkscape:groupmode="layer"
     inkscape:label="Page 1"
     transform="matrix(1.3333333,0,0,-1.3333333,-10.666666,210.66679)">
    <g
       id="g10386"
       style="fill:#626a67;fill-opacity:1">
      <g
         id="g10388"
         clip-path="url(#clipPath10392)"
         style="fill:#626a67;fill-opacity:1">
        <g
           id="g10394"
           transform="translate(78,69.8311)"
           style="fill:#626a67;fill-opacity:1">
          <path
             d="M 0,0 V 52.338 L 46,26.168 Z M 102.322,68.806 C 100.298,76.428 94.334,82.43 86.762,84.467 73.037,88.169 18,88.169 18,88.169 c 0,0 -55.037,0 -68.762,-3.702 C -58.334,82.43 -64.298,76.428 -66.322,68.806 -70,54.992 -70,26.169 -70,26.169 c 0,0 0,-28.822 3.678,-42.637 2.024,-7.622 7.988,-13.624 15.56,-15.662 13.725,-3.701 68.762,-3.701 68.762,-3.701 0,0 55.037,0 68.762,3.701 7.572,2.038 13.536,8.04 15.56,15.662 C 106,-2.653 106,26.169 106,26.169 c 0,0 0,28.823 -3.678,42.637"
             style="fill:#626a67;fill-opacity:1;fill-rule:nonzero;stroke:none"
             id="path10396" />
        </g>
      </g>
    </g>
  </g>
</svg>
